<?xml version="1.0" encoding="UTF-8" standalone="no"?>
<svg
  xmlns="http://www.w3.org/2000/svg"
  preserveAspectRatio="xMidYMid meet"
  viewBox="0 0 1000.000000 847.000000"
  height="847.000000pt"
  width="1000.000000pt"
  version="1.0">
  <g
    id="vor-icon-g14"
    stroke="none"
    fill="#a8c545"
    transform="translate(0.000000,847.000000) scale(0.100000,-0.100000)">
    <path
      id="vor-icon-path4"
      d="M4813 8124 c-466 -56 -946 -224 -1348 -473 -452 -278 -875 -702 -1132 -1134 -260 -438 -393 -829 -462 -1352 -15 -113 -16 -165 -10 -270 5 -71 11 -231 13 -355 5 -220 11 -273 51 -445 23 -98 35 -109 110 -100 169 18 279 58 362 130 l37 32 -12 84 c-25 163 -35 477 -23 698 12 222 38 363 116 625 125 414 367 820 690 1155 230 239 457 403 766 555 403 198 693 276 1141 307 173 11 291 6 493 -22 555 -79 999 -265 1432 -603 204 -159 467 -450 620 -685 l38 -59 75 -6 c41 -4 128 -3 193 3 112 8 121 11 172 45 36 24 60 48 70 71 14 36 14 36 44 21 65 -34 110 -131 111 -237 0 -66 -3 -81 -29 -121 -44 -69 -100 -98 -213 -108 -51 -5 -498 -10 -993 -11 -495 -1 -933 -4 -974 -8 l-74 -6 59 -46 c147 -116 300 -299 380 -452 25 -48 55 -94 67 -101 14 -9 78 -19 167 -25 242 -19 260 -22 281 -44 19 -20 20 -20 116 -4 67 12 153 17 271 17 103 0 181 4 193 11 11 5 86 21 167 35 181 30 234 45 295 84 26 16 54 30 62 30 7 0 17 4 20 10 14 22 136 81 191 91 129 25 268 139 342 281 40 79 86 220 102 318 23 139 -8 334 -77 480 -66 140 -232 279 -396 333 -53 17 -90 20 -258 21 l-195 1 -59 65 c-216 241 -498 489 -720 636 -437 287 -1022 493 -1520 534 -171 14 -618 11 -752 -6z"
    />
    <path
      id="vor-icon-path6"
      d="M5110 7084 c-14 -2 -65 -9 -115 -15 -417 -51 -859 -234 -1171 -486 -113 -90 -350 -333 -431 -441 -202 -268 -363 -620 -427 -932 -37 -184 -64 -536 -41 -542 5 -2 118 117 250 263 132 147 276 305 320 352 76 80 108 128 220 327 135 239 362 481 590 628 161 104 401 206 584 248 94 22 361 33 558 24 129 -6 194 -15 274 -35 188 -47 408 -145 569 -252 l69 -45 368 4 c202 1 374 7 380 11 10 6 9 15 -3 40 -21 40 -224 242 -327 326 -327 265 -742 446 -1158 506 -101 15 -459 28 -509 19z"
    />
    <path
      id="vor-icon-path8"
      d="m 4945,5799 c -294,-40 -580,-183 -899,-447 -193,-161 -328,-298 -716,-732 -306,-342 -527,-570 -675,-698 -188,-162 -253,-195 -455,-229 -101,-17 -179,-10 -244,24 -56,29 -123,102 -152,166 -26,56 -29,72 -29,167 1,112 11,149 62,223 l 48.4311,54.9449 -7,269.5413 c -3,155 -14.6077,305.5138 -17.6077,339.5138 l 4.094,84.4311 L 1781,4963 c -215,-136 -356,-321 -427,-560 -45,-152 -44,-398 3,-593 65,-268 268,-477 534,-550 64,-17 246,-41 314,-41 29,0 88,12 100,21 6,4 53,17 105,30 52,12 133,37 180,55 47,19 103,37 125,40 57,9 212,93 334,180 58,41 108,75 111,75 10,0 183.1605,122.7844 262.1605,205.7844 37,39 78.0275,90.7845 100.0275,128.7845 23,37 51.7569,91.9724 67.7569,109.9724 15,18 10.0551,50.4587 10.0551,55.4587 0,22 402,462 576,630 228,221 322,288 504,360 198,79 268,92 516,97 l 221,5 80,-41 c 200,-104 313,-278 313,-483 0,-146 -40,-253 -135,-357 -104,-114 -232,-171 -384,-171 -157,0 -279,49 -388,156 -107,105 -163,260 -150,416 3,37 3,70 -1,72 -20,12 -363,-283 -466,-399 l -57,-64 31,-75 c 101,-241 345,-476 616,-590 142,-60 241,-80 394,-80 143,0 205,9 335,51 185,60 295,126 428,258 208,206 308,404 338,669 44,396 -160,814 -512,1048 -194,130 -364,176 -674,183 -93,2 -201,0 -240,-6 z"
    />
    <path
      id="vor-icon-path10"
      d="m 8455.4833,5503.8265 c -33,-18 -81.8278,-35.4139 -111.8278,-41.4139 -51,-9 -94.9306,-22.8277 -225.9306,-100.8277 -26,-15 -58.4139,-41.9306 -75.4139,-49.9306 -16,-8 -26.5861,-8.4486 -19.5861,-9.4486 46,-1 86.2751,-541.2057 57.2751,-855.2057 -38,-401 -194,-845 -425,-1207 -132,-206 -214,-309 -400,-496 -235,-237 -466,-404 -750,-543 -322,-158 -554,-229 -910,-277 -162,-22 -583,-26 -720,-6 -548,79 -1013,276 -1440,611 -107,84 -337,314 -432,431 -100,124 -240,330 -249,366 -6,23 -14.4862,49.6743 -45.4862,43.6743 -19,-3 -100.4036,-4.4198 -119.9725,-43.9725 C 2497.9886,3338.8347 2488,3312.2392 2330,3271.2392 c -19,-5 -66.8612,-20.3445 -86.8612,-26.3445 l -56.0335,-7.8278 L 2252,3152 c 16,-26 60,-97 98,-158 197,-321 410,-578 668,-806 160,-141 280,-230 461,-342 375,-231 740,-370 1183,-451 191,-34 321,-45 559,-45 429,0 725,43 1064,155 767,253 1401,748 1833,1430 265,419 431,907 493,1445 18,159 16,537 -5,710 -19,161 -74.8959,443.7224 -85.8959,452.7224 -4,4 -31.6208,-20.8959 -64.6208,-38.8959 z"
    />
    <path
      id="vor-icon-path12"
      d="m 7224.4486,5195.6543 c -106,-13 -182.3792,-8.7943 -182.3792,-20.7943 0,-6 12.9306,-65.86 18.9306,-84.86 18,-57 29,-391 19,-555 -10,-167 -44,-307 -121,-500 -138,-345 -399,-652 -734,-862 -81,-51 -273,-140 -373,-173 -359,-116 -787,-117 -1124,-1 -410,142 -720,378 -953,726 -65,97 -175,306 -175,332 0,7 -3,13 -8,13 -8,0 -64,-81 -97,-142 -28,-52 -194.9725,-196.2982 -257.9725,-237.2982 -15,-10 -39.7293,-35.7293 -46.7293,-49.7293 -11,-22 5.7018,-39.9725 28.7018,-84.9725 54,-104 214,-318 348,-464 183,-201 414,-371 665,-491 188,-90 306,-134 518,-189 l 175,-47 h 355 355 l 140,33 c 218,51 373,107 560,202 223,112 326,178 460,292 246,211 460,475 589,728 117,227 197,465 237,700 31,184 37,524 12,720 l -22,171 -154.4139,-8.3457 c -88,1 -196.1375,-2 -232.1375,-7 z"
    />
  </g>
</svg>
